<?xml version="1.0" standalone="no"?>
<!DOCTYPE svg PUBLIC "-//W3C//DTD SVG 20010904//EN"
 "http://www.w3.org/TR/2001/REC-SVG-20010904/DTD/svg10.dtd">
<svg version="1.0" xmlns="http://www.w3.org/2000/svg"
 width="1024.000000pt" height="1024.000000pt" viewBox="0 0 1024.000000 1024.000000"
 preserveAspectRatio="xMidYMid meet">
<metadata>
Created by potrace 1.14, written by Peter Selinger 2001-2017
</metadata>
<g transform="translate(0.000000,1024.000000) scale(0.100000,-0.100000)"
fill="#000000" stroke="none">
<path d="M8930 6705 c-54 -27 -179 -84 -405 -185 -146 -65 -658 -253 -830
-305 -49 -15 -108 -33 -130 -41 -152 -52 -790 -213 -908 -229 -16 -2 -40 -6
-55 -10 -48 -10 -75 -15 -197 -36 -315 -54 -332 -55 -359 -31 -38 34 -218 158
-331 227 -128 80 -283 159 -340 174 -89 24 -162 5 -245 -66 l-42 -36 -96 47
-97 47 -130 -56 c-71 -31 -143 -63 -160 -70 -16 -7 -95 -41 -175 -75 -80 -34
-159 -68 -175 -75 -17 -8 -52 -23 -79 -35 -30 -13 -46 -24 -40 -30 5 -5 8 -30
6 -55 l-4 -45 -62 5 c-33 3 -83 8 -111 10 -27 3 -79 7 -115 10 -36 3 -78 8
-95 10 -16 2 -61 7 -100 10 -38 4 -80 8 -93 10 -13 2 -53 7 -90 10 -37 4 -74
8 -82 10 -8 3 -42 7 -75 10 -33 4 -71 8 -85 10 -70 11 -82 13 -225 31 -27 3
-59 8 -70 10 -10 2 -37 6 -60 9 -46 7 -206 33 -250 40 -72 13 -143 25 -175 30
-19 3 -84 14 -145 26 -60 11 -123 22 -140 25 -84 15 -362 70 -500 100 -11 2
-30 6 -41 8 -18 4 -69 15 -234 51 -8 2 -73 17 -144 34 -70 17 -138 33 -150 36
-11 2 -53 13 -93 24 l-72 19 -34 -33 c-122 -118 -170 -469 -101 -733 32 -120
81 -161 265 -220 93 -30 326 -89 439 -111 30 -6 66 -14 80 -16 114 -24 351
-66 445 -80 22 -3 65 -10 95 -15 61 -10 87 -14 210 -30 47 -6 95 -13 106 -15
12 -2 48 -6 80 -10 33 -4 70 -9 84 -11 14 -2 72 -9 130 -15 58 -6 114 -12 125
-14 11 -2 22 -4 25 -4 7 -1 -40 -29 -135 -80 -44 -24 -89 -49 -100 -56 -11 -7
-45 -26 -75 -42 -63 -34 -117 -65 -510 -288 -157 -89 -375 -216 -485 -282
-110 -65 -255 -152 -323 -192 -67 -40 -124 -77 -127 -81 -13 -21 438 -489 529
-548 80 -52 103 -52 210 1 50 25 148 78 216 118 69 40 244 141 390 224 146 83
405 234 575 334 171 101 326 192 345 203 19 11 87 51 150 88 63 37 131 77 150
88 19 10 82 48 140 82 126 75 170 99 317 174 l112 57 88 -59 c206 -137 400
-244 472 -261 35 -8 49 -5 91 16 l50 25 103 -50 c154 -76 172 -80 259 -52 315
97 638 245 703 321 14 17 25 40 26 52 1 24 8 69 12 73 2 2 170 -69 272 -116
11 -5 54 -23 95 -41 41 -17 89 -37 105 -44 86 -38 281 -120 945 -397 310 -129
341 -143 483 -214 250 -125 489 -282 720 -472 l77 -64 53 38 c289 207 477 415
477 527 0 33 -8 46 -52 90 -161 160 -1061 591 -1848 886 -84 31 -100 40 -80
45 14 3 56 12 94 21 38 9 77 18 85 20 183 36 644 182 884 279 285 116 618 295
684 367 63 70 95 195 92 363 -3 195 -39 384 -90 476 -34 60 -52 64 -129 25z"/>
</g>
</svg>
